<svg xmlns="http://www.w3.org/2000/svg" viewBox="0 0 1000 1000" width="1000" height="1000">
	<defs>
		<clipPath clipPathUnits="userSpaceOnUse" id="cp1">
			<path d="M0 0L1000 0L1000 1000L0 1000Z" />
		</clipPath>
	</defs>
	<style>
		tspan { white-space:pre }
		.shp0 { opacity: 0.412;fill: #e1e2fe } 
		.shp1 { opacity: 0.471;fill: #ecf1f7 } 
		.shp2 { opacity: 0.471;fill: #e1e2fe } 
		.shp3 { opacity: 0.58;fill: #3e479b } 
		.shp4 { opacity: 0.58;fill: #ef929c } 
		.shp5 { opacity: 0.659;fill: #ffffff } 
		.shp6 { opacity: 0.812;fill: #ffffff } 
		.shp7 { opacity: 0.533;fill: #ffffff } 
		.shp8 { opacity: 0.141;fill: #3e479b } 
		.shp9 { fill: #f7a9b4 } 
		.shp10 { fill: #ffffff } 
		.shp11 { opacity: 0.388;fill: #f7a9b4 } 
		.shp12 { fill: #599af2 } 
		.shp13 { opacity: 0.071;fill: #ecf1f7 } 
		.shp14 { fill: #3e479b } 
		.shp15 { opacity: 0.741;fill: #6d6cd4 } 
		.shp16 { opacity: 0.388;fill: #6d6cd4 } 
		.shp17 { opacity: 0.388;fill: #3e479b } 
		.shp18 { fill: #6161b5 } 
		.shp19 { opacity: 0.278;fill: #3e479b } 
		.shp20 { fill: #4c65ba } 
		.shp21 { opacity: 0.431;fill: #3e479b } 
		.shp22 { fill: #f28393 } 
		.shp23 { opacity: 0.122;fill: #ffffff } 
	</style>
	<g id="Page 1" clip-path="url(#cp1)">
		<path id="Path 1" class="shp0" d="M958.42 596.95C959.27 582.21 958.89 567.4 957.23 552.74C949.42 483.84 914.07 418.87 862.05 373.03C843.49 356.67 822.37 342.02 810.29 320.43C789.95 284.08 791.49 242.29 766.24 206.4C740.96 170.46 704.13 142.43 662.59 128.04C538.74 85.13 365.34 155 380.96 304.22C381.01 304.76 381.07 305.54 381.14 306.52C383.21 337.52 358.89 363.58 327.92 364.31C213.65 367.03 115.29 455.13 94.24 566.73C80.71 638.5 102.87 717.16 155.37 767.93C194.56 805.83 247.14 826.66 299.75 840.96C405.23 869.65 516.22 875.66 624.98 864.69C726.78 854.42 834.17 825.16 900.01 746.83C935.13 705.05 955.25 651.47 958.42 596.95ZM461.62 90.77C461.62 105.45 449.71 117.36 435.03 117.36C420.35 117.36 408.45 105.45 408.45 90.77C408.45 76.09 420.35 64.19 435.03 64.19C449.71 64.19 461.62 76.09 461.62 90.77ZM807.99 74.56C807.99 82.14 801.85 88.28 794.28 88.28C786.7 88.28 780.56 82.14 780.56 74.56C780.56 66.98 786.7 60.84 794.28 60.84C801.85 60.84 807.99 66.98 807.99 74.56ZM328.41 150.29C328.41 160.44 320.18 168.67 310.03 168.67C299.88 168.67 291.65 160.44 291.65 150.29C291.65 140.14 299.88 131.91 310.03 131.91C320.18 131.91 328.41 140.14 328.41 150.29ZM139.92 816.95C139.92 840.07 121.18 858.81 98.07 858.81C74.95 858.81 56.21 840.07 56.21 816.95C56.21 793.84 74.95 775.1 98.07 775.1C121.18 775.1 139.92 793.84 139.92 816.95Z" />
		<path id="Path 2" class="shp1" d="M947.03 163.9C958.96 140.66 949.79 112.15 926.55 100.22C903.31 88.29 858.65 89.17 846.72 112.41C834.79 135.65 870.56 155.59 885.14 177.27C905.48 207.49 935.1 187.14 947.03 163.9Z" />
		<path id="Path 3" class="shp2" d="M845.4 878.2C862.22 889.06 884.65 884.23 895.51 867.41C906.36 850.6 909.07 816.49 892.26 805.63C875.45 794.77 857.53 820.53 839.9 830.01C815.32 843.23 828.59 867.35 845.4 878.2ZM159.07 57.27C140.58 40.09 111.66 41.16 94.48 59.66C77.31 78.15 66.45 119.92 84.94 137.1C103.44 154.27 131.34 126.22 155.31 118.32C188.75 107.31 177.57 74.44 159.07 57.27ZM57.12 256.92C40.63 292.72 36.13 333.99 44.04 372.57C53.34 417.92 81.58 452.77 71.78 501.16C65.81 530.63 64.32 557.93 61.29 587.09C55.08 646.97 93.96 699.73 142.19 728.22C181.36 751.37 227.29 760.05 272.33 759.43C312.86 758.87 353.33 751.39 392.61 741.32C430.46 731.62 467.47 718.84 507.15 722.88C540.15 726.23 569.87 740.5 600.6 751.13C673.97 776.53 762.85 780.11 829.94 741.45C873 716.64 903.14 676.34 916.5 633.01C927.19 598.39 928.54 566.01 920.53 530.67C912.31 494.37 898.43 457.79 902.74 419.97C905.75 393.62 917.8 368.18 915.59 341.75C914.12 324.19 906.39 307.72 896.94 292.85C862.41 238.55 804.61 202.19 743.46 182.16C685.91 163.31 626.57 149.66 566.65 154.2C442.78 163.57 417.53 143.9 290.94 116.82C209.21 99.34 117.79 161.65 69.97 233.84C65.09 241.2 60.81 248.92 57.12 256.92ZM142.35 312.71C139.8 341.29 149.45 370.75 141.39 399.06C131.74 432.95 103.81 458.34 92.43 491.61C75.61 540.78 76.41 595.87 96.84 643.78C106.69 666.88 121.07 688.33 140.71 703.17C170.99 726.05 210.66 731.07 247.97 728.17C303.5 723.85 362.09 699.81 417.92 706.36C448.73 709.98 458.14 743.33 474.05 765.32C492.04 790.2 516.55 809.74 543.65 822.75C593.55 846.7 653.44 848.97 704.45 827.25C758.9 804.06 806.36 747.42 803.24 683.37C801.8 653.74 789.94 624.31 795.43 595.2C802.32 558.66 829.85 525.36 849.8 495.59C871.83 462.71 885.17 423.51 887.79 383.51C887.82 383.05 887.85 382.6 887.87 382.15C891.96 313.14 848.44 250.2 782.77 228.61C782.77 228.61 643.05 182.66 643.05 182.66C501.27 136.03 359.62 137.57 229.27 206C201.06 220.81 155.13 264.93 145.67 295.35C143.89 301.09 142.86 306.88 142.35 312.71Z" />
		<path id="Path 4" class="shp3" d="M944.3 763.16C944.3 768.13 940.27 772.16 935.3 772.16C930.33 772.16 926.3 768.13 926.3 763.16C926.3 758.19 930.33 754.16 935.3 754.16C940.27 754.16 944.3 758.19 944.3 763.16ZM528.55 61.72C528.55 66.69 524.52 70.72 519.55 70.72C514.58 70.72 510.55 66.69 510.55 61.72C510.55 56.75 514.58 52.72 519.55 52.72C524.52 52.72 528.55 56.75 528.55 61.72ZM203.41 846.16C203.41 851.13 199.38 855.16 194.41 855.16C189.44 855.16 185.41 851.13 185.41 846.16C185.41 841.19 189.44 837.16 194.41 837.16C199.38 837.16 203.41 841.19 203.41 846.16Z" />
		<path id="Path 5" class="shp4" d="M769.48 884C769.48 887.87 766.34 891 762.48 891C758.61 891 755.48 887.87 755.48 884C755.48 880.14 758.61 877 762.48 877C766.34 877 769.48 880.14 769.48 884Z" />
		<path id="Path 6" class="shp3" d="M157.68 215C157.68 216.66 156.34 218 154.68 218C153.03 218 151.68 216.66 151.68 215C151.68 213.34 153.03 212 154.68 212C156.34 212 157.68 213.34 157.68 215Z" />
		<path id="Path 7" class="shp4" d="M793.72 125.51C792.48 131.35 786.74 135.07 780.9 133.82C775.06 132.58 771.34 126.84 772.59 121C773.83 115.16 779.58 111.44 785.41 112.69C791.25 113.93 794.97 119.68 793.72 125.51ZM216.14 75.85C215.66 78.14 213.4 79.6 211.11 79.11C208.82 78.62 207.37 76.36 207.85 74.08C208.34 71.79 210.6 70.33 212.88 70.82C215.17 71.3 216.63 73.56 216.14 75.85Z" />
		<path id="Path 8" class="shp3" d="M891.66 58.04C891.25 59.99 889.33 61.23 887.38 60.81C885.44 60.4 884.2 58.48 884.62 56.54C885.03 54.59 886.95 53.35 888.89 53.76C890.84 54.18 892.08 56.09 891.66 58.04ZM129.56 917.29C129.14 919.24 127.23 920.48 125.28 920.06C123.34 919.65 122.1 917.73 122.51 915.79C122.93 913.84 124.84 912.6 126.79 913.01C128.73 913.43 129.97 915.34 129.56 917.29Z" />
		<path id="Path 9" fill-rule="evenodd" class="shp5" d="M402.31 395.22C401.69 403.28 394.66 409.31 386.6 408.7L370.68 407.48C367.66 419.15 362.18 429.74 354.86 438.72L365.25 450.83C370.52 456.97 369.81 466.21 363.68 471.48C357.54 476.74 348.3 476.04 343.03 469.9L332.64 457.79C322.64 463.66 311.35 467.47 299.36 468.69L298.15 484.6C297.53 492.66 290.49 498.7 282.43 498.09C274.37 497.47 268.34 490.43 268.95 482.37L270.17 466.46C258.5 463.43 247.91 457.96 238.93 450.63L226.82 461.03C220.68 466.29 211.44 465.59 206.17 459.45C200.91 453.32 201.61 444.07 207.75 438.81L219.86 428.41C213.99 418.42 210.18 407.12 208.96 395.14L193.05 393.92C184.99 393.31 178.95 386.27 179.56 378.21C180.18 370.15 187.21 364.11 195.28 364.73L211.19 365.94C214.22 354.28 219.69 343.69 227.02 334.71L216.62 322.59C211.36 316.46 212.06 307.22 218.2 301.95C224.33 296.68 233.57 297.39 238.84 303.53L249.24 315.64C259.23 309.77 270.53 305.96 282.51 304.74L283.73 288.83C284.34 280.76 291.38 274.73 299.44 275.34C307.5 275.96 313.54 282.99 312.92 291.05L311.71 306.97C323.37 309.99 333.96 315.47 342.94 322.79L355.06 312.4C361.19 307.13 370.43 307.84 375.7 313.98C380.97 320.11 380.26 329.35 374.12 334.62L362.01 345.01C367.89 355.01 371.69 366.3 372.91 378.29L388.82 379.51C396.89 380.12 402.92 387.15 402.31 395.22ZM350.41 391.25C352.91 358.41 328.32 329.75 295.48 327.24C262.63 324.74 233.97 349.33 231.47 382.17C228.96 415.02 253.55 443.68 286.4 446.18C319.24 448.69 347.9 424.1 350.41 391.25ZM728.89 828.33C726.97 828.33 725.05 827.87 723.29 826.96C720.4 825.46 718.26 822.92 717.28 819.81L714.42 810.78C707.03 811.54 699.69 810.9 692.54 808.9L688.18 817.3C685.08 823.27 677.7 825.61 671.73 822.51C668.84 821.01 666.71 818.47 665.72 815.37C664.74 812.26 665.02 808.96 666.53 806.06L670.89 797.66C665.14 792.97 660.39 787.33 656.75 780.85L647.72 783.71C641.31 785.74 634.44 782.18 632.41 775.77C631.43 772.66 631.71 769.36 633.21 766.47C634.72 763.57 637.25 761.44 640.36 760.46L649.39 757.6C648.64 750.21 649.27 742.86 651.27 735.72L642.87 731.35C639.98 729.85 637.84 727.32 636.86 724.21C635.87 721.1 636.16 717.8 637.66 714.91C639.16 712.02 641.7 709.88 644.81 708.9C647.91 707.92 651.21 708.2 654.11 709.7L662.51 714.06C667.2 708.31 672.84 703.57 679.32 699.93L676.46 690.9C674.43 684.49 677.99 677.62 684.41 675.59C687.51 674.6 690.81 674.89 693.71 676.39C696.6 677.89 698.73 680.43 699.72 683.53L702.58 692.56C709.97 691.81 717.31 692.44 724.45 694.45L728.82 686.04C731.92 680.07 739.29 677.73 745.26 680.83C751.23 683.93 753.57 691.31 750.47 697.28L746.11 705.69C751.86 710.38 756.61 716.02 760.25 722.49L769.27 719.63C772.38 718.65 775.68 718.93 778.58 720.43C781.47 721.94 783.6 724.47 784.59 727.58C786.61 733.99 783.05 740.86 776.64 742.89L767.61 745.75C768.36 753.14 767.73 760.48 765.72 767.63L774.13 771.99C780.1 775.09 782.43 782.47 779.34 788.44C777.84 791.33 775.3 793.47 772.19 794.45C769.09 795.43 765.79 795.15 762.89 793.65L754.49 789.28C749.79 795.04 744.15 799.78 737.68 803.42L740.54 812.45C741.52 815.55 741.24 818.86 739.74 821.75C738.24 824.64 735.7 826.78 732.59 827.76C731.38 828.14 730.13 828.33 728.89 828.33ZM717.23 806.41L721.09 818.61C721.75 820.69 723.19 822.4 725.13 823.41C727.08 824.42 729.29 824.61 731.38 823.95C733.47 823.28 735.18 821.85 736.19 819.91C737.2 817.96 737.39 815.74 736.73 813.65L732.86 801.46L734.34 800.68C741.42 796.96 747.48 791.86 752.36 785.53L753.38 784.2L764.73 790.09C766.68 791.1 768.9 791.3 770.99 790.64C773.07 789.97 774.78 788.54 775.79 786.59C777.87 782.58 776.3 777.63 772.29 775.54L760.93 769.65L761.43 768.05C763.8 760.42 764.48 752.53 763.45 744.6L763.23 742.94L775.43 739.08C779.74 737.71 782.14 733.1 780.77 728.79C780.11 726.7 778.68 724.99 776.73 723.98C774.79 722.98 772.57 722.79 770.48 723.45L758.29 727.31L757.51 725.83C753.78 718.75 748.68 712.69 742.35 707.81L741.03 706.79L746.92 695.44C749 691.43 747.43 686.47 743.42 684.39C739.4 682.3 734.45 683.87 732.37 687.89L726.47 699.24L724.88 698.74C717.25 696.37 709.36 695.7 701.42 696.72L699.76 696.94L695.9 684.74C695.24 682.65 693.81 680.95 691.86 679.94C689.92 678.93 687.71 678.74 685.61 679.4C681.3 680.76 678.91 685.38 680.27 689.69L684.13 701.89L682.65 702.66C675.58 706.39 669.51 711.49 664.64 717.82L663.62 719.15L652.26 713.25C650.32 712.24 648.1 712.05 646.01 712.71C643.92 713.37 642.22 714.81 641.21 716.75C640.2 718.7 640.01 720.91 640.67 723C641.33 725.09 642.77 726.8 644.71 727.8L656.07 733.7L655.57 735.3C653.2 742.93 652.52 750.82 653.55 758.75L653.76 760.41L641.57 764.27C639.48 764.93 637.77 766.36 636.76 768.31C635.75 770.25 635.57 772.47 636.23 774.56C637.59 778.87 642.21 781.27 646.52 779.9L658.71 776.04L659.49 777.52C663.22 784.6 668.31 790.66 674.64 795.53L675.97 796.55L670.08 807.91C669.07 809.85 668.88 812.07 669.54 814.16C670.2 816.25 671.63 817.95 673.58 818.96C677.59 821.04 682.55 819.47 684.63 815.46L690.52 804.11L692.12 804.6C699.75 806.97 707.65 807.65 715.57 806.63L717.23 806.41ZM708.45 795.24C701.56 795.24 694.73 793.59 688.44 790.33C678.11 784.97 670.49 775.91 666.98 764.82C663.47 753.73 664.49 741.94 669.84 731.61C675.2 721.29 684.26 713.67 695.35 710.16C706.44 706.64 718.23 707.66 728.56 713.02C738.88 718.38 746.5 727.44 750.02 738.53C753.53 749.62 752.51 761.41 747.15 771.73C741.79 782.06 732.74 789.68 721.65 793.19C717.31 794.56 712.87 795.24 708.45 795.24ZM708.54 712.11C704.53 712.11 700.5 712.72 696.56 713.97C686.49 717.16 678.26 724.08 673.4 733.46C668.53 742.83 667.6 753.54 670.79 763.61C673.98 773.68 680.9 781.91 690.28 786.78C699.66 791.65 710.37 792.56 720.44 789.38C730.51 786.19 738.74 779.27 743.6 769.89C748.47 760.52 749.39 749.81 746.2 739.73C743.01 729.66 736.09 721.44 726.72 716.57C721 713.61 714.8 712.11 708.54 712.11Z" />
		<path id="Path 10" fill-rule="evenodd" class="shp5" d="M833.92 753.67C833.17 753.67 832.41 753.62 831.65 753.51C823.08 752.26 817.12 744.27 818.36 735.71L820.27 722.55C810.59 719.1 801.83 713.88 794.19 707.03L783.54 714.98C780.18 717.49 776.04 718.54 771.89 717.93C767.74 717.33 764.07 715.15 761.56 711.78C756.38 704.84 757.81 694.98 764.75 689.8L775.4 681.85C771 672.57 768.49 662.69 767.94 652.43L754.79 650.52C746.22 649.27 740.26 641.29 741.5 632.72C742.1 628.57 744.29 624.9 747.65 622.39C751.01 619.88 755.15 618.83 759.3 619.43L772.46 621.34C775.91 611.66 781.12 602.9 787.98 595.26L780.03 584.61C777.52 581.25 776.47 577.11 777.08 572.96C777.68 568.81 779.86 565.14 783.23 562.63C786.59 560.12 790.73 559.07 794.88 559.67C799.03 560.27 802.7 562.46 805.21 565.82L813.16 576.47C822.43 572.07 832.32 569.56 842.58 569.01L844.49 555.86C845.74 547.28 853.74 541.32 862.29 542.57C866.44 543.17 870.11 545.36 872.62 548.72C875.13 552.08 876.18 556.22 875.58 560.37L873.66 573.52C883.35 576.98 892.11 582.19 899.75 589.05L910.4 581.1C917.33 575.92 927.2 577.35 932.38 584.3C937.56 591.24 936.13 601.1 929.19 606.28L918.54 614.23C922.94 623.5 925.44 633.38 926 643.65L939.15 645.56C947.72 646.8 953.68 654.79 952.44 663.36C951.19 671.93 943.19 677.9 934.64 676.64L921.49 674.73C918.03 684.42 912.82 693.18 905.96 700.82L913.91 711.47C919.09 718.41 917.66 728.27 910.72 733.45C907.35 735.96 903.21 737.01 899.06 736.41C894.91 735.8 891.24 733.62 888.73 730.25L880.78 719.61C871.51 724 861.63 726.51 851.36 727.07L849.45 740.22C848.32 748.03 841.59 753.67 833.92 753.67ZM794.47 701.83L795.69 702.97C803.6 710.38 812.83 715.87 823.12 719.31L824.71 719.84L822.32 736.28C821.39 742.67 825.84 748.62 832.22 749.55C838.61 750.48 844.57 746.04 845.49 739.65L847.88 723.2L849.55 723.15C860.4 722.78 870.81 720.14 880.5 715.29L882 714.55L891.94 727.86C893.81 730.37 896.54 732 899.64 732.45C902.74 732.9 905.82 732.11 908.32 730.24C913.49 726.38 914.56 719.03 910.7 713.86L900.76 700.54L901.91 699.32C909.31 691.41 914.8 682.18 918.24 671.88L918.77 670.3L935.21 672.69C941.61 673.61 947.55 669.17 948.48 662.78C949.41 656.4 944.97 650.44 938.58 649.51L922.13 647.13L922.08 645.45C921.71 634.61 919.07 624.2 914.23 614.51L913.48 613.01L926.79 603.07C931.97 599.21 933.04 591.86 929.17 586.69C927.31 584.18 924.57 582.55 921.48 582.1C918.38 581.65 915.3 582.44 912.79 584.31L912.79 584.31L899.47 594.25L898.25 593.1C890.34 585.7 881.11 580.2 870.82 576.77L869.23 576.24L871.62 559.8C872.07 556.7 871.28 553.62 869.41 551.11C867.54 548.61 864.81 546.98 861.72 546.53C855.31 545.6 849.38 550.04 848.45 556.43L846.06 572.88L844.39 572.93C833.54 573.29 823.13 575.94 813.44 580.78L811.94 581.53L802 568.21C800.13 565.71 797.4 564.08 794.3 563.63C791.21 563.18 788.13 563.96 785.62 565.83C783.11 567.7 781.49 570.44 781.04 573.53C780.59 576.63 781.37 579.71 783.24 582.22L793.18 595.53L792.04 596.76C784.63 604.67 779.14 613.9 775.7 624.19L775.17 625.78L758.73 623.39C755.64 622.95 752.55 623.73 750.04 625.59C747.54 627.46 745.91 630.2 745.46 633.29C744.53 639.68 748.98 645.63 755.36 646.56L771.81 648.95L771.86 650.62C772.23 661.46 774.87 671.88 779.72 681.57L780.46 683.07L767.14 693.01C764.64 694.88 763.01 697.61 762.56 700.71C762.11 703.8 762.9 706.88 764.77 709.39C766.64 711.9 769.37 713.52 772.46 713.97C775.56 714.42 778.64 713.64 781.15 711.77L794.47 701.83ZM846.86 594.19C835.33 594.19 824.17 597.87 814.77 604.89C790.98 622.65 786.07 656.45 803.82 680.24C821.58 704.03 855.38 708.94 879.17 691.19C890.7 682.58 898.18 670.01 900.25 655.78C902.32 641.55 898.72 627.36 890.12 615.83C881.52 604.31 868.94 596.82 854.71 594.76C852.08 594.38 849.46 594.19 846.86 594.19ZM847.04 705.86C829.39 705.86 811.96 697.83 800.61 682.64C781.54 657.07 786.82 620.76 812.38 601.68C824.76 592.44 840 588.57 855.28 590.8C870.58 593.02 884.08 601.06 893.33 613.44C902.57 625.83 906.43 641.06 904.21 656.35C901.99 671.64 893.95 685.15 881.57 694.39C871.2 702.13 859.07 705.86 847.04 705.86ZM575.32 761.73L534.24 761.73C533.13 761.73 532.24 760.83 532.24 759.73C532.24 758.62 533.13 757.73 534.24 757.73L575.32 757.73C576.43 757.73 577.32 758.62 577.32 759.73C577.32 760.83 576.43 761.73 575.32 761.73ZM575.32 804.43L534.24 804.43C533.13 804.43 532.24 803.54 532.24 802.43C532.24 801.33 533.13 800.43 534.24 800.43L575.32 800.43C576.43 800.43 577.32 801.33 577.32 802.43C577.32 803.54 576.43 804.43 575.32 804.43ZM880.37 692.79L880.39 692.79L880.37 692.79Z" />
		<path id="Path 11" fill-rule="evenodd" class="shp6" d="M606.34 847.56L352.6 847.56C349.61 847.56 347.17 845.13 347.17 842.14L347.17 710.44C347.17 707.45 349.61 705.02 352.6 705.02L606.34 705.02C609.33 705.02 611.76 707.45 611.76 710.44L611.76 842.14C611.76 845.13 609.33 847.56 606.34 847.56ZM352.6 709.02C351.81 709.02 351.17 709.66 351.17 710.44L351.17 842.14C351.17 842.92 351.81 843.56 352.6 843.56L606.34 843.56C607.12 843.56 607.76 842.92 607.76 842.14L607.76 710.44C607.76 709.66 607.12 709.02 606.34 709.02L352.6 709.02Z" />
		<path id="Path 12" fill-rule="evenodd" class="shp7" d="M606.34 847.56L352.6 847.56C349.61 847.56 347.17 845.13 347.17 842.14L347.17 710.44C347.17 707.45 349.61 705.02 352.6 705.02L606.34 705.02C609.33 705.02 611.76 707.45 611.76 710.44L611.76 842.14C611.76 845.13 609.33 847.56 606.34 847.56ZM352.6 709.02C351.81 709.02 351.17 709.66 351.17 710.44L351.17 842.14C351.17 842.92 351.81 843.56 352.6 843.56L606.34 843.56C607.12 843.56 607.76 842.92 607.76 842.14L607.76 710.44C607.76 709.66 607.12 709.02 606.34 709.02L352.6 709.02ZM575.32 741L379.54 741C378.44 741 377.54 740.11 377.54 739C377.54 737.9 378.44 737 379.54 737L575.32 737C576.43 737 577.32 737.9 577.32 739C577.32 740.11 576.43 741 575.32 741ZM575.32 782.45L379.54 782.45C378.44 782.45 377.54 781.56 377.54 780.45C377.54 779.35 378.44 778.45 379.54 778.45L575.32 778.45C576.43 778.45 577.32 779.35 577.32 780.45C577.32 781.56 576.43 782.45 575.32 782.45ZM485.1 761.73L379.54 761.73C378.44 761.73 377.54 760.83 377.54 759.73C377.54 758.62 378.44 757.73 379.54 757.73L485.1 757.73C486.2 757.73 487.1 758.62 487.1 759.73C487.1 760.83 486.2 761.73 485.1 761.73ZM485.1 804.43L379.54 804.43C378.44 804.43 377.54 803.54 377.54 802.43C377.54 801.33 378.44 800.43 379.54 800.43L485.1 800.43C486.2 800.43 487.1 801.33 487.1 802.43C487.1 803.54 486.2 804.43 485.1 804.43ZM450.73 824.22L379.54 824.22C378.44 824.22 377.54 823.32 377.54 822.22C377.54 821.11 378.44 820.22 379.54 820.22L450.73 820.22C451.83 820.22 452.73 821.11 452.73 822.22C452.73 823.32 451.83 824.22 450.73 824.22ZM182.24 633.68L136.06 633.68C134.95 633.68 134.06 632.78 134.06 631.68C134.06 630.57 134.95 629.68 136.06 629.68L182.24 629.68C183.34 629.68 184.24 630.57 184.24 631.68C184.24 632.78 183.34 633.68 182.24 633.68ZM182.24 585.68L136.06 585.68C134.95 585.68 134.06 584.78 134.06 583.68C134.06 582.57 134.95 581.68 136.06 581.68L182.24 581.68C183.34 581.68 184.24 582.57 184.24 583.68C184.24 584.78 183.34 585.68 182.24 585.68Z" />
		<path id="Path 13" fill-rule="evenodd" class="shp6" d="M386.81 692.92L100.78 692.92C97.79 692.92 95.36 690.48 95.36 687.49L95.36 538.63C95.36 535.64 97.79 533.2 100.78 533.2L386.81 533.2C389.8 533.2 392.24 535.64 392.24 538.63L392.24 687.49C392.24 690.48 389.8 692.92 386.81 692.92ZM100.78 537.2C99.99 537.2 99.36 537.84 99.36 538.63L99.36 687.49C99.36 688.28 99.99 688.92 100.78 688.92L386.81 688.92C387.6 688.92 388.24 688.28 388.24 687.49L388.24 538.63C388.24 537.84 387.6 537.2 386.81 537.2L100.78 537.2Z" />
		<path id="Path 14" fill-rule="evenodd" class="shp7" d="M386.81 692.92L100.78 692.92C97.79 692.92 95.36 690.48 95.36 687.49L95.36 538.63C95.36 535.64 97.79 533.2 100.78 533.2L386.81 533.2C389.8 533.2 392.24 535.64 392.24 538.63L392.24 687.49C392.24 690.48 389.8 692.92 386.81 692.92ZM100.78 537.2C99.99 537.2 99.36 537.84 99.36 538.63L99.36 687.49C99.36 688.28 99.99 688.92 100.78 688.92L386.81 688.92C387.6 688.92 388.24 688.28 388.24 687.49L388.24 538.63C388.24 537.84 387.6 537.2 386.81 537.2L100.78 537.2ZM356.1 656.97L136.06 656.97C134.96 656.97 134.06 656.07 134.06 654.97C134.06 653.86 134.96 652.97 136.06 652.97L356.1 652.97C357.21 652.97 358.1 653.86 358.1 654.97C358.1 656.07 357.21 656.97 356.1 656.97ZM356.1 610.38L136.06 610.38C134.96 610.38 134.06 609.49 134.06 608.38C134.06 607.27 134.96 606.38 136.06 606.38L356.1 606.38C357.21 606.38 358.1 607.27 358.1 608.38C358.1 609.49 357.21 610.38 356.1 610.38ZM356.1 633.68L237.47 633.68C236.36 633.68 235.47 632.78 235.47 631.68C235.47 630.57 236.36 629.68 237.47 629.68L356.1 629.68C357.21 629.68 358.1 630.57 358.1 631.68C358.1 632.78 357.21 633.68 356.1 633.68ZM356.1 585.68L237.47 585.68C236.36 585.68 235.47 584.78 235.47 583.68C235.47 582.57 236.36 581.68 237.47 581.68L356.1 581.68C357.21 581.68 358.1 582.57 358.1 583.68C358.1 584.78 357.21 585.68 356.1 585.68ZM356.1 563.44L276.1 563.44C274.99 563.44 274.1 562.55 274.1 561.44C274.1 560.33 274.99 559.44 276.1 559.44L356.1 559.44C357.21 559.44 358.1 560.33 358.1 561.44C358.1 562.55 357.21 563.44 356.1 563.44Z" />
		<path id="Path 15" class="shp8" d="M719.97 773.73L501.13 643.99C499.37 642.94 498.79 640.67 499.84 638.91L676.5 340.95C677.54 339.19 679.81 338.61 681.57 339.65L900.41 469.4C902.17 470.44 902.75 472.71 901.7 474.47L725.04 772.44C724 774.19 721.73 774.77 719.97 773.73Z" />
		<path id="Path 16" class="shp9" d="M714.29 761.79L495.45 632.05C493.69 631.01 493.11 628.74 494.15 626.97L670.81 329.01C671.85 327.25 674.13 326.67 675.89 327.71L894.72 457.46C896.48 458.5 897.06 460.77 896.02 462.53L719.36 760.5C718.32 762.25 716.05 762.84 714.29 761.79Z" />
		<path id="Path 17" class="shp8" d="M777.15 758.14L526.95 712.02C524.94 711.65 523.61 709.72 523.98 707.71L586.78 367.05C587.15 365.04 589.08 363.71 591.09 364.08L841.28 410.2C843.29 410.57 844.62 412.5 844.25 414.51L781.46 755.17C781.09 757.19 779.16 758.52 777.15 758.14Z" />
		<path id="Path 18" class="shp10" d="M775.44 749.23L517.97 701.77L582.1 353.83L839.58 401.29L775.44 749.23Z" />
		<path id="Path 19" class="shp11" d="M771.8 748.56L521.6 702.44C519.59 702.07 518.26 700.14 518.64 698.13L581.43 357.47C581.8 355.46 583.73 354.13 585.74 354.5L835.93 400.62C837.95 400.99 839.28 402.92 838.91 404.93L776.11 745.59C775.74 747.6 773.81 748.93 771.8 748.56Z" />
		<path id="Path 20" class="shp10" d="M800.61 442.28C800.49 442.28 800.37 442.27 800.25 442.24L737.62 430.7C736.53 430.5 735.82 429.46 736.02 428.37C736.22 427.29 737.25 426.57 738.35 426.77L800.98 438.31C802.06 438.51 802.78 439.55 802.58 440.64C802.4 441.6 801.56 442.28 800.61 442.28ZM796.93 462.29C796.81 462.29 796.68 462.28 796.56 462.25L733.93 450.71C732.85 450.51 732.13 449.46 732.33 448.38C732.53 447.29 733.56 446.58 734.66 446.77L797.29 458.32C798.37 458.52 799.09 459.56 798.89 460.65C798.71 461.61 797.87 462.29 796.93 462.29ZM792.92 484.03C792.8 484.03 792.68 484.02 792.55 484L729.92 472.45C728.84 472.25 728.12 471.21 728.32 470.13C728.52 469.04 729.55 468.32 730.65 468.52L793.28 480.07C794.37 480.27 795.08 481.31 794.88 482.39C794.71 483.36 793.86 484.03 792.92 484.03Z" />
		<path id="Path 21" class="shp8" d="M696.02 502.52L588.72 482.74C586.54 482.34 585.1 480.25 585.5 478.07L606.77 362.67C607.17 360.5 609.26 359.06 611.44 359.46L718.75 379.24C720.92 379.64 722.36 381.73 721.96 383.91L700.69 499.31C700.29 501.48 698.2 502.92 696.02 502.52Z" />
		<path id="Path 22" class="shp12" d="M692.08 495.82L589.78 476.97C587.6 476.57 586.16 474.48 586.56 472.3L606.7 363.04C607.11 360.87 609.2 359.43 611.37 359.83L713.67 378.68C715.85 379.08 717.29 381.17 716.89 383.35L696.75 492.61C696.35 494.78 694.26 496.23 692.08 495.82Z" />
		<path id="Path 23" class="shp13" d="M714.99 393.66L604.8 373.35L606.73 362.93C607.11 360.81 609.14 359.42 611.26 359.81L713.92 378.73C715.96 379.11 717.31 381.06 716.93 383.1L714.99 393.66Z" />
		<path id="Path 24" class="shp14" d="M635.63 427.69C634.85 427.69 634.07 427.62 633.28 427.47L631.75 427.19C623.65 425.7 618.28 417.89 619.77 409.79L623.62 388.91C623.92 387.28 625.49 386.2 627.11 386.51C628.74 386.81 629.82 388.37 629.52 390L625.67 410.88C624.78 415.73 627.99 420.4 632.84 421.29L634.37 421.57C638.14 422.27 641.76 419.77 642.46 416L652.2 363.15C652.92 359.27 650.34 355.52 646.45 354.8L643.84 354.32C639.69 353.56 635.73 356.3 634.97 360.43L634.73 361.73C634.43 363.36 632.84 364.44 631.24 364.14C629.61 363.84 628.53 362.27 628.83 360.65L629.07 359.34C630.43 351.96 637.55 347.06 644.92 348.42L647.53 348.9C654.68 350.22 659.42 357.1 658.1 364.24L648.36 417.09C647.21 423.32 641.75 427.69 635.63 427.69Z" />
		<path id="Path 25" class="shp10" d="M646.04 383.32C645.98 383.32 645.92 383.31 645.86 383.3L605.88 375.93C605.34 375.83 604.98 375.31 605.08 374.77C605.18 374.22 605.69 373.86 606.25 373.96L646.22 381.33C646.77 381.43 647.13 381.95 647.03 382.5C646.94 382.98 646.52 383.32 646.04 383.32ZM768.29 589.99C768.17 589.99 768.05 589.98 767.92 589.96L576.56 554.68C575.47 554.48 574.75 553.44 574.95 552.35C575.15 551.27 576.18 550.54 577.28 550.75L768.65 586.02C769.74 586.22 770.46 587.27 770.25 588.35C770.08 589.32 769.24 589.99 768.29 589.99ZM754.61 664.22C754.49 664.22 754.37 664.21 754.24 664.18L562.87 628.91C561.79 628.71 561.07 627.67 561.27 626.58C561.47 625.5 562.5 624.77 563.6 624.98L754.97 660.25C756.06 660.45 756.77 661.49 756.57 662.58C756.4 663.54 755.55 664.22 754.61 664.22ZM660.54 608.5C660.42 608.5 660.3 608.49 660.18 608.47L569.71 591.8C568.63 591.6 567.91 590.55 568.11 589.46C568.31 588.38 569.34 587.65 570.44 587.86L660.91 604.54C661.99 604.74 662.71 605.78 662.51 606.87C662.33 607.83 661.49 608.5 660.54 608.5ZM673.01 540.88C672.89 540.88 672.77 540.87 672.64 540.85L582.18 524.17C581.09 523.97 580.38 522.93 580.58 521.84C580.78 520.76 581.81 520.04 582.91 520.24L673.37 536.91C674.46 537.11 675.18 538.16 674.97 539.24C674.8 540.21 673.96 540.88 673.01 540.88ZM761.5 626.81C761.38 626.81 761.26 626.8 761.14 626.78L674.94 610.89C673.86 610.69 673.14 609.65 673.34 608.56C673.54 607.48 674.57 606.75 675.67 606.96L761.86 622.85C762.95 623.05 763.67 624.09 763.47 625.18C763.29 626.14 762.45 626.81 761.5 626.81Z" />
		<path id="Path 26" class="shp12" d="M741.24 233.71L634.88 233.71C631.2 233.71 628.21 230.72 628.21 227.04L628.21 191.47C628.21 187.79 631.2 184.8 634.88 184.8L741.24 184.8C744.92 184.8 747.9 187.79 747.9 191.47L747.9 227.04C747.9 230.72 744.92 233.71 741.24 233.71Z" />
		<path id="Path 27" class="shp9" d="M821.36 287.01L672.58 287.01C668.9 287.01 665.92 284.03 665.92 280.35L665.92 227.44C665.92 223.76 668.9 220.78 672.58 220.78L821.36 220.78C825.05 220.78 828.03 223.76 828.03 227.44L828.03 280.35C828.03 284.03 825.05 287.01 821.36 287.01Z" />
		<path id="Path 28" class="shp10" d="M705.54 273.01L870.29 273.01C875.27 273.01 879.34 277.08 879.34 282.06L879.34 332.53C879.34 337.51 875.27 341.58 870.29 341.58L705.54 341.58C700.56 341.58 696.49 337.51 696.49 332.53L696.49 282.06C696.49 277.08 700.56 273.01 705.54 273.01Z" />
		<path id="Path 29" class="shp15" d="M705.54 273.01L870.29 273.01C875.27 273.01 879.34 277.08 879.34 282.06L879.34 332.53C879.34 337.51 875.27 341.58 870.29 341.58L705.54 341.58C700.56 341.58 696.49 337.51 696.49 332.53L696.49 282.06C696.49 277.08 700.56 273.01 705.54 273.01Z" />
		<path id="Path 30" fill-rule="evenodd" class="shp10" d="M821.29 315.33C816.91 315.33 813.35 311.76 813.35 307.38C813.35 303 816.91 299.44 821.29 299.44C825.67 299.44 829.24 303 829.24 307.38C829.24 311.76 825.67 315.33 821.29 315.33ZM821.29 301.44C818.02 301.44 815.35 304.11 815.35 307.38C815.35 310.66 818.02 313.33 821.29 313.33C824.57 313.33 827.24 310.66 827.24 307.38C827.24 304.11 824.57 301.44 821.29 301.44ZM788.52 315.33C784.14 315.33 780.58 311.76 780.58 307.38C780.58 303 784.14 299.44 788.52 299.44C792.9 299.44 796.47 303 796.47 307.38C796.47 311.76 792.9 315.33 788.52 315.33ZM788.52 301.44C785.24 301.44 782.58 304.11 782.58 307.38C782.58 310.66 785.24 313.33 788.52 313.33C791.8 313.33 794.47 310.66 794.47 307.38C794.47 304.11 791.8 301.44 788.52 301.44ZM757.97 315.33C753.59 315.33 750.03 311.76 750.03 307.38C750.03 303 753.59 299.44 757.97 299.44C762.35 299.44 765.91 303 765.91 307.38C765.91 311.76 762.35 315.33 757.97 315.33ZM757.97 301.44C754.69 301.44 752.03 304.11 752.03 307.38C752.03 310.66 754.69 313.33 757.97 313.33C761.25 313.33 763.91 310.66 763.91 307.38C763.91 304.11 761.25 301.44 757.97 301.44ZM304.75 189.59L560.04 189.59C565.18 189.59 569.35 193.76 569.35 198.9L569.35 574.91C569.35 592.65 554.97 607.02 537.23 607.02L359.98 607.02C322.18 607.02 291.54 576.38 291.54 538.59L291.54 202.81C291.54 195.51 297.45 189.59 304.75 189.59Z" />
		<path id="Path 31" class="shp16" d="M294.79 189.59L564.36 189.59C567.11 189.59 569.35 191.82 569.35 194.58L569.35 576.4C569.35 593.32 555.64 607.02 538.73 607.02L353.89 607.02C319.46 607.02 291.54 579.11 291.54 544.67L291.54 192.84C291.54 191.05 292.99 189.59 294.79 189.59Z" />
		<path id="Path 32" class="shp17" d="M318.42 189.59L565.4 189.59C567.58 189.59 569.35 191.36 569.35 193.54L569.35 577.45C569.35 593.78 556.11 607.02 539.77 607.02L377.53 607.02C343.67 607.02 316.21 579.58 316.21 545.71L316.21 191.8C316.21 190.58 317.2 189.59 318.42 189.59Z" />
		<path id="Path 33" class="shp18" d="M354.98 606.95L354.98 607.03L578.12 607.03C603.8 607.03 624.62 586.21 624.62 560.52L624.62 542.86L398.96 542.86L398.96 560.52C398.96 585.36 379.49 605.64 354.98 606.95Z" />
		<path id="Path 34" class="shp19" d="M384.57 606.95L384.57 607.03L583.22 607.03C606.09 607.03 624.62 586.21 624.62 560.52L624.62 542.86L423.72 542.86L423.72 560.52C423.72 585.36 406.39 605.64 384.57 606.95Z" />
		<path id="Path 35" class="shp10" d="M527.18 494.75L366.74 494.75C365.64 494.75 364.74 493.85 364.74 492.75C364.74 491.64 365.64 490.75 366.74 490.75L527.18 490.75C528.29 490.75 529.18 491.64 529.18 492.75C529.18 493.85 528.29 494.75 527.18 494.75ZM530.55 427.19L363.74 427.19C362.64 427.19 361.74 426.3 361.74 425.19C361.74 424.09 362.64 423.19 363.74 423.19L530.55 423.19C531.65 423.19 532.55 424.09 532.55 425.19C532.55 426.3 531.65 427.19 530.55 427.19ZM446.96 460.94L361.73 460.94C360.63 460.94 359.73 460.05 359.73 458.94C359.73 457.84 360.63 456.94 361.73 456.94L446.96 456.94C448.07 456.94 448.96 457.84 448.96 458.94C448.96 460.05 448.07 460.94 446.96 460.94ZM440.5 460.94L368.19 460.94C367.08 460.94 366.19 460.05 366.19 458.94C366.19 457.84 367.08 456.94 368.19 456.94L440.5 456.94C441.61 456.94 442.5 457.84 442.5 458.94C442.5 460.05 441.61 460.94 440.5 460.94ZM474.71 354.97L364.9 354.97C363.8 354.97 362.9 354.07 362.9 352.97C362.9 351.86 363.8 350.97 364.9 350.97L474.71 350.97C475.81 350.97 476.71 351.86 476.71 352.97C476.71 354.07 475.81 354.97 474.71 354.97ZM525.61 354.97L492.16 354.97C491.06 354.97 490.16 354.07 490.16 352.97C490.16 351.86 491.06 350.97 492.16 350.97L525.61 350.97C526.72 350.97 527.61 351.86 527.61 352.97C527.61 354.07 526.72 354.97 525.61 354.97ZM530.55 388.71L411.65 388.71C410.54 388.71 409.65 387.82 409.65 386.71C409.65 385.61 410.54 384.71 411.65 384.71L530.55 384.71C531.65 384.71 532.55 385.61 532.55 386.71C532.55 387.82 531.65 388.71 530.55 388.71ZM399.9 388.71L363.74 388.71C362.64 388.71 361.74 387.82 361.74 386.71C361.74 385.61 362.64 384.71 363.74 384.71L399.9 384.71C401.01 384.71 401.9 385.61 401.9 386.71C401.9 387.82 401.01 388.71 399.9 388.71ZM527.18 326.39L366.74 326.39C365.64 326.39 364.74 325.5 364.74 324.39C364.74 323.29 365.64 322.39 366.74 322.39L527.18 322.39C528.29 322.39 529.18 323.29 529.18 324.39C529.18 325.5 528.29 326.39 527.18 326.39ZM527.18 258.84L366.74 258.84C365.64 258.84 364.74 257.94 364.74 256.84C364.74 255.74 365.64 254.84 366.74 254.84L527.18 254.84C528.29 254.84 529.18 255.74 529.18 256.84C529.18 257.94 528.29 258.84 527.18 258.84ZM425.63 292.59L364.91 292.59C363.8 292.59 362.91 291.69 362.91 290.59C362.91 289.48 363.8 288.59 364.91 288.59L425.63 288.59C426.73 288.59 427.63 289.48 427.63 290.59C427.63 291.69 426.73 292.59 425.63 292.59ZM525.96 292.59L453.64 292.59C452.54 292.59 451.64 291.69 451.64 290.59C451.64 289.48 452.54 288.59 453.64 288.59L525.96 288.59C527.07 288.59 527.96 289.48 527.96 290.59C527.96 291.69 527.07 292.59 525.96 292.59ZM652.19 310.21C582.28 310.21 525.61 366.88 525.61 436.79C525.61 506.7 582.28 563.37 652.19 563.37C722.1 563.37 778.78 506.7 778.78 436.79C778.78 366.88 722.1 310.21 652.19 310.21ZM553 445.89C548.58 445.89 545 442.3 545 437.89C545 374.03 596.95 322.08 660.81 322.08C665.22 322.08 668.81 325.66 668.81 330.08C668.81 334.5 665.22 338.08 660.81 338.08C605.77 338.08 561 382.85 561 437.89C561 442.3 557.42 445.89 553 445.89Z" />
		<path id="Path 36" fill-rule="evenodd" class="shp3" d="M652.19 567.37C580.19 567.37 521.61 508.79 521.61 436.79C521.61 364.79 580.19 306.21 652.19 306.21C724.2 306.21 782.78 364.79 782.78 436.79C782.78 508.79 724.2 567.37 652.19 567.37ZM652.19 314.21C584.6 314.21 529.61 369.2 529.61 436.79C529.61 504.38 584.6 559.37 652.19 559.37C719.79 559.37 774.78 504.38 774.78 436.79C774.78 369.2 719.79 314.21 652.19 314.21Z" />
		<path id="Path 37" fill-rule="evenodd" class="shp14" d="M759.16 536.87L742.07 553.96C717.17 573.09 686.03 584.5 652.19 584.5C570.61 584.5 504.48 518.37 504.48 436.79C504.48 355.21 570.61 289.07 652.19 289.07C733.78 289.07 799.91 355.21 799.91 436.79C799.91 470.76 788.42 502.04 769.14 527C768.94 527.15 768.73 527.3 768.54 527.49L759.16 536.87ZM778.78 436.79C778.78 366.88 722.1 310.21 652.19 310.21C582.28 310.21 525.61 366.88 525.61 436.79C525.61 506.7 582.28 563.37 652.19 563.37C722.1 563.37 778.78 506.7 778.78 436.79Z" />
		<path id="Path 38" fill-rule="evenodd" class="shp14" d="M652.19 586.51C569.64 586.51 502.48 519.34 502.48 436.79C502.48 354.24 569.64 287.07 652.19 287.07C734.75 287.07 801.91 354.24 801.91 436.79C801.91 470.19 791.13 501.81 770.73 528.22L770.35 528.59C770.15 528.74 770.05 528.81 769.96 528.9L743.29 555.54C716.93 575.8 685.42 586.51 652.19 586.51ZM652.19 291.07C571.85 291.07 506.48 356.44 506.48 436.79C506.48 517.14 571.85 582.51 652.19 582.51C684.49 582.51 715.11 572.11 740.75 552.45L767.13 526.07C767.32 525.88 767.52 525.72 767.72 525.56C787.47 499.9 797.91 469.21 797.91 436.79C797.91 356.44 732.54 291.07 652.19 291.07ZM652.19 565.37C581.29 565.37 523.61 507.69 523.61 436.79C523.61 365.89 581.29 308.21 652.19 308.21C723.1 308.21 780.78 365.89 780.78 436.79C780.78 507.69 723.1 565.37 652.19 565.37ZM652.19 312.21C583.5 312.21 527.61 368.09 527.61 436.79C527.61 505.49 583.5 561.37 652.19 561.37C720.89 561.37 776.78 505.49 776.78 436.79C776.78 368.09 720.89 312.21 652.19 312.21Z" />
		<path id="Path 39" class="shp20" d="M764.89 550.58L759.16 544.85C756.95 542.65 756.95 539.07 759.16 536.87L742.07 553.96L741.79 554.23C739.59 556.44 739.59 560.02 741.79 562.22L748.75 569.17C751.04 565.33 757.75 557.8 764.89 550.58ZM759.16 536.87C756.95 539.07 756.95 542.65 759.16 544.85L764.89 550.58C771.8 543.59 779.09 536.92 783.19 534.15L776.53 527.49C774.51 525.47 771.36 525.32 769.14 527C768.94 527.15 768.73 527.3 768.54 527.49L759.16 536.87Z" />
		<path id="Path 40" class="shp21" d="M759.16 536.87C756.95 539.07 756.95 542.65 759.16 544.85L764.89 550.58C771.8 543.59 779.09 536.92 783.19 534.15L776.53 527.49C774.51 525.47 771.36 525.32 769.14 527C768.94 527.15 768.73 527.3 768.54 527.49L759.16 536.87Z" />
		<path id="Path 41" class="shp12" d="M890.36 638.06L786.34 532.91C785.96 532.53 784.82 533.03 783.19 534.14C779.09 536.92 771.8 543.59 764.89 550.58C757.75 557.8 751.04 565.33 748.75 569.17C748 570.42 747.71 571.29 748.04 571.62L852.06 676.78C862.64 687.47 879.78 687.47 890.36 676.78C900.93 666.09 900.93 648.76 890.36 638.06Z" />
		<path id="Path 42" class="shp8" d="M890.36 638.06L786.34 532.91C784.94 531.49 773.08 542.11 762.9 552.61C754.24 561.53 879.78 687.47 890.36 676.78C900.93 666.09 900.93 648.76 890.36 638.06Z" />
		<path id="Path 43" class="shp10" d="M506.24 507.51L164.3 507.51C144.33 507.51 128.13 491.31 128.13 471.34C128.13 451.36 144.33 435.17 164.3 435.17L506.24 435.17C526.21 435.17 542.41 451.36 542.41 471.34C542.41 491.31 526.21 507.51 506.24 507.51Z" />
		<path id="Path 44" class="shp12" d="M506.24 507.51L450.62 507.51L450.35 435.17L506.24 435.17C526.21 435.17 542.41 451.36 542.41 471.34C542.41 491.31 526.21 507.51 506.24 507.51Z" />
		<path id="Path 45" fill-rule="evenodd" class="shp10" d="M492.16 484.01C483.44 484.01 476.34 476.91 476.34 468.19C476.34 459.47 483.44 452.37 492.16 452.37C500.89 452.37 507.98 459.47 507.98 468.19C507.98 471.78 506.8 475.18 504.62 477.95L515.83 489.17C516.62 489.95 516.62 491.22 515.83 492C515.44 492.39 514.93 492.58 514.42 492.58C513.91 492.58 513.4 492.39 513.01 492L501.77 480.76C499.03 482.87 495.68 484.01 492.16 484.01ZM492.16 456.37C485.64 456.37 480.34 461.67 480.34 468.19C480.34 474.71 485.64 480.01 492.16 480.01C495.32 480.01 498.29 478.78 500.52 476.55C502.75 474.32 503.98 471.35 503.98 468.19C503.98 461.67 498.68 456.37 492.16 456.37Z" />
		<path id="Path 46" class="shp22" d="M511.12 582.24L340.92 582.24C329.01 582.24 319.35 572.59 319.35 560.68L319.35 546.53C319.35 534.58 309.66 524.89 297.7 524.89L219.09 524.89C207.14 524.89 197.44 534.58 197.44 546.53L197.44 602.41L197.44 666.64L197.44 771.2C197.44 782.33 206.47 791.36 217.61 791.36L511.12 791.36C522.25 791.36 531.28 782.33 531.28 771.2L531.28 602.41C531.28 591.27 522.25 582.24 511.12 582.24ZM492.36 582.24L322.16 582.24C310.25 582.24 300.59 572.59 300.59 560.68L300.59 546.53C300.59 534.58 290.9 524.89 278.95 524.89L200.33 524.89C188.38 524.89 178.69 534.58 178.69 546.53L178.69 602.41L178.69 666.64L178.69 771.2C178.69 782.33 187.71 791.36 198.85 791.36L492.36 791.36C503.49 791.36 512.52 782.33 512.52 771.2L512.52 602.41C512.52 591.27 503.49 582.24 492.36 582.24Z" />
		<path id="Path 47" class="shp23" d="M492.36 582.24L322.16 582.24C310.25 582.24 300.59 572.59 300.59 560.68L300.59 546.53C300.59 534.58 290.9 524.89 278.95 524.89L200.33 524.89C188.38 524.89 178.69 534.58 178.69 546.53L178.69 602.41L178.69 666.64L178.69 771.2C178.69 782.33 187.71 791.36 198.85 791.36L492.36 791.36C503.49 791.36 512.52 782.33 512.52 771.2L512.52 602.41C512.52 591.27 503.49 582.24 492.36 582.24ZM449.19 582.24L302.42 582.24C292.14 582.24 283.82 572.59 283.82 560.68L283.82 546.53C283.82 534.58 275.46 524.89 265.15 524.89L197.36 524.89C187.05 524.89 178.69 534.58 178.69 546.53L178.69 602.41L178.69 666.64L178.69 771.2C178.69 782.33 186.47 791.36 196.07 791.36L449.19 791.36C458.79 791.36 466.58 782.33 466.58 771.2L466.58 602.41C466.58 591.27 458.79 582.24 449.19 582.24ZM194.41 604.71C193.31 604.71 192.41 603.81 192.41 602.71L192.41 553.63C192.41 546.03 198.6 539.84 206.2 539.84L264.13 539.84C265.23 539.84 266.13 540.74 266.13 541.84C266.13 542.95 265.23 543.84 264.13 543.84L206.2 543.84C200.8 543.84 196.41 548.23 196.41 553.63L196.41 602.71C196.41 603.81 195.52 604.71 194.41 604.71Z" />
	</g>
</svg>