<svg xmlns="http://www.w3.org/2000/svg" viewBox="0 0 1000 1000" width="1000" height="1000">
	<defs>
		<clipPath clipPathUnits="userSpaceOnUse" id="cp1">
			<path d="M0 0L1000 0L1000 1000L0 1000Z" />
		</clipPath>
		<linearGradient id="grd1" gradientUnits="userSpaceOnUse"  x1="412.849" y1="190.485" x2="509.05" y2="891.33">
			<stop offset="0" stop-color="#beedc2"  />
			<stop offset="1" stop-color="#56b8b3"  />
		</linearGradient>
		<linearGradient id="grd2" gradientUnits="userSpaceOnUse"  x1="351.01" y1="634.162" x2="926.607" y2="555.153">
			<stop offset="0" stop-color="#beedc2"  />
			<stop offset="1" stop-color="#56b8b3"  />
		</linearGradient>
		<clipPath clipPathUnits="userSpaceOnUse" id="cp2">
			<path d="M774.11 591.15C711.53 591.81 661.34 643.07 661.99 705.65C662.65 768.23 713.92 818.43 776.5 817.77C839.08 817.11 889.28 765.85 888.62 703.27C887.96 641.09 837.36 591.14 775.33 591.14C774.93 591.14 774.52 591.14 774.11 591.15Z" />
		</clipPath>
	</defs>
	<style>
		tspan { white-space:pre }
		.shp0 { opacity: 0.8;mix-blend-mode: screen;fill: url(#grd1) } 
		.shp1 { opacity: 0.8;mix-blend-mode: screen;fill: url(#grd2) } 
		.shp2 { opacity: 0.431;mix-blend-mode: screen;fill: #ffffff } 
		.shp3 { fill: #372f82 } 
		.shp4 { fill: #514a92 } 
		.shp5 { fill: none;stroke: #372f82;stroke-linecap:round;stroke-linejoin:round;stroke-width: 4 } 
		.shp6 { fill: none;stroke: #372f82;stroke-linecap:round;stroke-linejoin:round;stroke-width: 4;stroke-dasharray: 8,16 } 
		.shp7 { fill: #953183 } 
		.shp8 { fill: #ffecc2 } 
		.shp9 { fill: #a24a92 } 
		.shp10 { opacity: 0.251;fill: #ffffff } 
		.shp11 { fill: #f79527 } 
		.shp12 { fill: #fcb82e } 
		.shp13 { opacity: 0.102;fill: #ffffff } 
		.shp14 { fill: #a56f28 } 
		.shp15 { fill: #398ca6 } 
		.shp16 { fill: #006b8c } 
		.shp17 { fill: #589eb4 } 
		.shp18 { opacity: 0.259;fill: #ffffff } 
		.shp19 { fill: #f6b58b } 
		.shp20 { fill: #f39c64 } 
		.shp21 { fill: #3e352d } 
		.shp22 { fill: #232322 } 
		.shp23 { fill: #004a60 } 
		.shp24 { fill: #ac5e9e } 
		.shp25 { fill: #004d6a } 
		.shp26 { fill: #445f65 } 
		.shp27 { fill: #d95932 } 
		.shp28 { fill: #ffffff } 
		.shp29 { fill: #3b565b } 
		.shp30 { fill: #bb4d31 } 
		.shp31 { fill: #cfcfcf } 
		.shp32 { fill: #b0b0b0 } 
	</style>
	<g id="Page 1" clip-path="url(#cp1)">
		<path id="Path 2" class="shp0" d="M769.05 494.23C899.52 564.72 914.09 710.84 783.51 832.4C652.93 953.95 320.7 942.16 196.73 835.12C72.77 728.09 24.78 529.7 97.54 358.49C170.29 187.28 344.36 130.04 484.39 185.22C570.67 219.22 570.06 301.26 617.41 376.19C646.91 422.88 718.97 467.17 769.05 494.23Z" />
		<path id="Path 3" class="shp1" d="M600.47 341.62C658.37 234.46 778.37 222.5 878.21 329.74C978.04 436.98 968.35 709.84 880.45 811.65C792.54 913.47 629.61 952.88 488.99 893.12C348.38 833.37 301.37 690.41 346.68 575.4C374.61 504.54 441.99 505.05 503.53 466.16C541.87 441.93 578.25 382.75 600.47 341.62Z" />
		<path id="Path 5" class="shp2" d="M256.42 598.92L214.24 590.91C210.06 590.12 207.31 586.08 208.1 581.9C208.9 577.71 212.93 574.97 217.12 575.76L259.29 583.77C263.48 584.56 266.22 588.6 265.43 592.78C264.64 596.96 260.6 599.71 256.42 598.92ZM273.92 752.42L247.41 643.45C246.91 641.39 246.84 639.26 247.19 637.18L253.76 598.41L235.33 594.91L216.9 591.42L208.81 629.9C208.37 631.96 207.52 633.92 206.31 635.64L141.71 727.33C136.12 735.27 140.6 746.34 150.15 748.16L204.29 758.43L258.44 768.71C267.99 770.52 276.21 761.87 273.92 752.42Z" />
		<path id="Path 6" class="shp3" d="M245.81 679.2L194.7 669.5L151.88 730.34C149.56 733.63 151.42 738.22 155.37 738.97L256.94 758.24C260.89 758.99 264.3 755.41 263.35 751.5L245.81 679.2Z" />
		<path id="Path 7" class="shp4" d="M220.3 703.55C218.78 709.04 213.1 712.26 207.6 710.74C202.11 709.22 198.88 703.53 200.4 698.04C201.93 692.54 207.61 689.32 213.11 690.84C218.6 692.36 221.82 698.05 220.3 703.55ZM233.7 722.25C232.89 725.18 229.85 726.9 226.92 726.09C223.99 725.28 222.27 722.24 223.08 719.31C223.89 716.38 226.93 714.66 229.86 715.47C232.79 716.28 234.51 719.32 233.7 722.25ZM215.99 725.74C215.41 727.85 213.23 729.08 211.12 728.5C209.02 727.91 207.78 725.73 208.36 723.63C208.95 721.52 211.13 720.29 213.23 720.87C215.34 721.45 216.58 723.63 215.99 725.74ZM191.82 729.05C190.99 732.07 187.86 733.84 184.84 733C181.81 732.17 180.04 729.04 180.88 726.02C181.72 723 184.84 721.22 187.87 722.06C190.89 722.9 192.66 726.02 191.82 729.05ZM233.31 738.48C233.02 739.53 231.93 740.15 230.88 739.85C229.82 739.56 229.2 738.47 229.5 737.42C229.79 736.37 230.88 735.75 231.93 736.04C232.98 736.33 233.6 737.42 233.31 738.48Z" />
		<path id="Path 8" class="shp2" d="M216.98 591.43L253.67 598.4L256.25 583.19L220.16 576.34L216.98 591.43ZM248.88 589.65C248.39 591.41 246.57 592.45 244.8 591.96C243.04 591.47 242.01 589.65 242.5 587.88C242.98 586.12 244.81 585.09 246.57 585.57C248.33 586.06 249.37 587.89 248.88 589.65ZM255.92 590.3C255.61 591.39 254.48 592.03 253.38 591.73C252.29 591.43 251.65 590.29 251.95 589.2C252.25 588.1 253.39 587.46 254.48 587.76C255.58 588.07 256.22 589.2 255.92 590.3Z" />
		<path id="Path 9" class="shp5" d="M588.02 219.74C589.31 220.07 590.6 220.41 591.89 220.76" />
		<path id="Path 10" class="shp6" d="M607.31 225.33C687.21 251.26 756.61 308.89 795.18 390.9C869.21 548.32 801.61 735.94 644.19 809.97C486.78 884 299.15 816.4 225.13 658.99C152.81 505.22 215.63 322.64 365.29 245.25" />
		<path id="Path 11" class="shp5" d="M372.5 241.64C373.7 241.06 374.9 240.49 376.11 239.92" />
		<path id="Path 12" class="shp7" d="M90.32 760.25C80.92 762.55 71.41 756.77 69.11 747.38C66.81 737.98 72.59 728.46 81.98 726.17L193.19 698.97L201.52 733.05L90.32 760.25Z" />
		<path id="Path 13" class="shp8" d="M209.56 727.05L89.39 756.44C82.08 758.22 74.71 753.75 72.93 746.44C71.14 739.14 75.61 731.77 82.92 729.98L190.38 703.7L209.56 727.05Z" />
		<path id="Path 14" class="shp9" d="M104.22 890.93C106 898.23 115.1 902.29 124.5 899.99L248.49 869.67L213.38 726.11L89.39 756.44C79.99 758.73 70.89 754.67 69.11 747.38L104.22 890.93Z" />
		<path id="Path 15" fill-rule="evenodd" class="shp7" d="M134.4 810.12L132.99 804.68L136.94 803.66L135.34 801.06L126.83 803.25L126.68 806.3L129.92 805.47L131.32 810.91L118.11 814.31L116.71 808.87L119.54 808.14L120.45 788.46L118.75 788.9L117.37 783.54L133.32 779.44L146.75 801.13L149.65 800.39L151.05 805.83L134.4 810.12ZM132.52 796.47L127.47 788.21L127.08 797.87L132.52 796.47Z" />
		<path id="Path 16" fill-rule="evenodd" class="shp7" d="M151.34 800L153.75 799.38L149.04 781.1L146.64 781.72L145.26 776.36L160.75 772.37C167.65 770.6 171.59 772.33 172.76 776.85C173.65 780.34 173.14 782.29 170.34 784.34C173.55 784.4 176.61 785.96 177.64 789.99C179.15 795.85 176.53 799.27 168.52 801.33L152.73 805.4L151.34 800ZM159.28 785.24L161.82 784.59C164.02 784.02 164.33 782.66 163.82 780.66C163.32 778.75 161.87 777.93 160.29 778.34L157.68 779.01L159.28 785.24ZM165.67 796.31C167.42 795.86 168.7 794.11 168.12 791.87C167.57 789.75 165.97 788.52 163.69 789.11L160.49 789.93L162.35 797.16L165.67 796.31ZM206.78 785.94C204.76 789.78 201.15 793.64 195.71 795.04C186.9 797.31 179.59 793.17 177.2 783.9C174.74 774.35 180.45 766.77 185.89 765.37C190.05 764.3 192.51 766.14 193.02 766.54L193.37 763.97L199.9 762.29L202.93 774.09L195.5 776C194.68 773.34 192.69 771.15 189.75 771.9C186.76 772.67 185.76 776.87 186.92 781.4C187.98 785.51 191.05 788.66 195 787.65C198.49 786.75 200.28 782.39 200.55 781.88L206.78 785.94Z" />
		<path id="Path 17" class="shp10" d="M268.61 759.26L268.65 725.21C294.21 718.2 283.17 696.62 283.83 696.62C283.83 694.04 269.53 694.53 251.89 694.51C250.48 694.51 249.09 694.51 247.72 694.52C253.44 695.01 259.15 695.82 264.84 696.52C266.77 696.76 272.9 697.36 273.57 700.13C261.23 703.4 239.73 706.57 219.95 697.67C219.95 697.67 209.48 720.07 235.28 725.96L235.25 759.23C202.91 766.75 178.77 795.67 178.74 830.3C178.69 870.69 211.4 903.46 251.78 903.5C292.16 903.55 324.94 870.84 324.98 830.46C325.02 795.82 300.94 766.85 268.61 759.26ZM251.89 694.51C234.25 694.49 219.95 695.09 219.95 697.67C219.95 700.26 234.24 703.85 251.88 703.87C269.52 703.89 283.83 699.21 283.83 696.62C283.83 694.04 269.53 694.53 251.89 694.51Z" />
		<path id="Path 18" class="shp11" d="M184.9 825.44C184.75 827.27 184.65 829.12 184.65 830.99C184.61 868.11 214.67 898.23 251.79 898.27C288.9 898.31 319.03 868.25 319.07 831.13C319.07 829.26 318.97 827.41 318.82 825.58L184.9 825.44Z" />
		<path id="Path 19" class="shp12" d="M318.82 825.58C318.82 827.98 288.84 829.9 251.86 829.86C214.88 829.82 184.9 827.84 184.9 825.44C184.91 823.04 214.89 821.13 251.87 821.17C288.85 821.21 318.83 823.18 318.82 825.58Z" />
		<path id="Path 20" class="shp13" d="M301.63 790.26C301.63 790.26 277.41 756.55 232.8 770.16C188.2 783.77 188.97 836.79 188.97 836.79C188.97 836.79 210.78 794.5 243.49 787.69C276.19 780.89 301.63 790.26 301.63 790.26ZM258.04 804.84C258.03 810.11 253.75 814.38 248.48 814.37C243.21 814.37 238.94 810.09 238.94 804.82C238.95 799.55 243.23 795.28 248.5 795.28C253.77 795.29 258.04 799.56 258.04 804.84ZM288.15 796.11C288.15 800.07 284.93 803.28 280.97 803.27C277 803.27 273.8 800.05 273.8 796.09C273.8 792.13 277.02 788.92 280.98 788.92C284.94 788.93 288.15 792.14 288.15 796.11ZM270.17 846.04C270.17 851.1 266.06 855.2 261 855.19C255.93 855.19 251.83 851.08 251.84 846.02C251.84 840.96 255.95 836.86 261.01 836.86C266.08 836.87 270.18 840.98 270.17 846.04ZM232.92 849.56C232.92 854.3 229.07 858.13 224.34 858.13C219.61 858.12 215.77 854.28 215.78 849.55C215.78 844.81 219.62 840.98 224.36 840.98C229.09 840.99 232.92 844.83 232.92 849.56ZM227.31 815.82C227.3 818.99 224.73 821.56 221.55 821.56C218.38 821.56 215.81 818.98 215.81 815.81C215.81 812.63 218.39 810.06 221.56 810.07C224.74 810.07 227.31 812.64 227.31 815.82ZM256.16 775.4C256.16 777.14 254.75 778.54 253.01 778.54C251.27 778.54 249.86 777.13 249.87 775.39C249.87 773.65 251.28 772.24 253.02 772.25C254.76 772.25 256.16 773.66 256.16 775.4ZM277.42 815.66C277.41 818.71 274.93 821.19 271.88 821.19C268.82 821.18 266.34 818.7 266.35 815.65C266.35 812.59 268.83 810.12 271.89 810.12C274.94 810.12 277.42 812.6 277.42 815.66ZM285.73 844.37C285.73 847.27 283.38 849.62 280.48 849.62C277.58 849.61 275.23 847.26 275.23 844.36C275.24 841.46 277.59 839.11 280.49 839.12C283.39 839.12 285.74 841.47 285.73 844.37ZM264.96 872.28C264.96 874.74 262.97 876.73 260.51 876.72C258.05 876.72 256.06 874.73 256.06 872.27C256.06 869.81 258.06 867.82 260.52 867.82C262.98 867.82 264.97 869.82 264.96 872.28Z" />
		<path id="Path 21" class="shp14" d="M741.86 866.43C741.9 870.2 767.23 872.99 798.45 872.66C829.66 872.33 854.93 869.01 854.89 865.24C854.85 861.47 829.52 858.67 798.3 859C767.09 859.33 741.82 862.65 741.86 866.43Z" />
		<path id="Path 22" class="shp3" d="M742 880.09C742.04 883.86 767.38 886.65 798.59 886.32C829.8 886 855.07 882.67 855.03 878.9C854.99 875.13 829.66 872.33 798.45 872.66C767.23 872.99 741.96 876.32 742 880.09Z" />
		<path id="Path 23" class="shp4" d="M855.03 878.9L742 880.09L741.86 866.43L854.89 865.24L855.03 878.9ZM741.86 866.43C741.9 870.2 767.23 872.99 798.45 872.66C829.66 872.33 854.93 869.01 854.89 865.24C854.85 861.47 829.52 858.67 798.3 859C767.09 859.33 741.82 862.65 741.86 866.43ZM788.83 866.36L811.03 866.13L810.61 826.23L788.41 826.47L788.83 866.36Z" />
		<path id="Path 24" class="shp3" d="M776.94 835.89C776.77 835.89 776.67 835.89 776.62 835.89L776.64 824.5C777.2 824.51 833.26 824.05 868.92 788C889.05 767.64 899.07 739.67 898.71 704.85C898.18 654.7 877.17 619.36 836.25 599.82C805.36 585.07 774.36 585.22 774.05 585.23L773.93 573.84C775.3 573.83 807.91 573.67 841.15 589.54C860.89 598.97 876.7 612.09 888.14 628.56C902.39 649.06 909.78 674.69 910.09 704.73C910.49 742.74 899.34 773.47 876.94 796.08C856.47 816.75 830.29 826.47 811.94 830.98C793.48 835.52 779.28 835.86 776.94 835.89Z" />
		<path id="Path 25" class="shp4" d="M783.9 841.45L769.6 841.6L766.71 567.47L781.02 567.32L783.9 841.45Z" />
		<path id="Path 26" class="shp3" d="M783.76 827.68L781.1 574.86C776.3 575.23 771.53 575.77 766.81 576.56L769.48 830.27C774.32 829.88 779.13 829.06 783.76 827.68Z" />
		<path id="Path 27" class="shp15" d="M888.62 703.27C889.28 765.85 839.08 817.11 776.5 817.77C713.92 818.43 662.66 768.23 661.99 705.65C661.34 643.07 711.53 591.81 774.11 591.15C836.69 590.49 887.96 640.69 888.62 703.27Z" />
		<path id="Path 28" class="shp16" d="M873.81 648.42C873.49 656.27 872.42 664.1 870.45 671.81C863.58 698.62 845.09 721.27 824.78 739.41C805.04 757.06 782.08 770.9 757.68 781.09C741.92 787.68 725.52 792.73 708.79 796.21C727.79 810 751.22 818.04 776.5 817.77C839.08 817.11 889.28 765.85 888.62 703.27C888.41 683.31 883.04 664.61 873.81 648.42Z" />
		<path id="Path 29" class="shp17" d="M749.78 646.03C762.42 632.95 773.27 617.78 780.76 601.16C782.17 598.02 783.46 594.81 784.58 591.53C781.13 591.25 777.64 591.11 774.11 591.15C711.53 591.81 661.34 643.07 661.99 705.65C662 706.22 662.02 706.78 662.04 707.34C695.48 694.05 724.9 671.78 749.78 646.03Z" />
		<g id="Mask" clip-path="url(#cp2)">
			<path id="Path 31" class="shp4" d="M868.46 630.87C866.08 629.47 836.58 657.8 847.26 673.77C857.95 689.74 838.76 704.16 845.48 717.08C852.19 730 888.16 740.13 888.16 740.13C888.16 740.13 926.33 664.9 868.46 630.87ZM705.31 604.56C705.31 604.56 773.79 618.84 774.67 644.18C775.56 669.53 751.01 682.51 757.3 692.34C763.59 702.16 772.81 731.25 754.33 737.63C735.84 744.01 734.07 752.07 739.04 753.87C744 755.67 770.83 777.66 747.04 808.83C723.25 840 742.04 806.72 734.55 797.52C729.39 791.19 717.92 783.08 718.2 771.72C718.33 766.56 719.9 756.85 728.22 753.98C751.6 745.92 675.68 728.29 689.14 713.44C702.59 698.59 699.52 688.73 686.68 679.59C673.84 670.45 627.56 621.46 705.31 604.56Z" />
		</g>
		<path id="Path 33" class="shp4" d="M788.83 866.36C788.85 868.01 793.83 869.3 799.96 869.23C806.09 869.17 811.05 867.78 811.03 866.13C811.01 864.48 806.03 863.19 799.9 863.25C793.77 863.32 788.81 864.71 788.83 866.36Z" />
		<path id="Path 34" class="shp18" d="M707.45 669.22C707.75 697.24 730.71 719.72 758.74 719.43C786.76 719.13 809.24 696.17 808.95 668.15C808.65 640.12 785.69 617.64 757.67 617.94C729.64 618.23 707.16 641.19 707.45 669.22ZM748.87 745.54C748.97 754.93 756.66 762.47 766.06 762.37C775.45 762.27 782.99 754.58 782.89 745.18C782.79 735.79 775.09 728.25 765.7 728.35C756.31 728.45 748.77 736.15 748.87 745.54Z" />
		<path id="Path 35" class="shp7" d="M818.58 487.16L835.63 509.09L797.07 541.13L779.89 519.32C779.89 519.32 787.61 499.12 818.58 487.16Z" />
		<path id="Path 36" class="shp11" d="M805.66 471.54L679.98 313.22L641.09 344.1L768.13 504.13L805.66 471.54Z" />
		<path id="Path 37" class="shp19" d="M679.98 313.22L633.46 296.26L641.09 344.1L655.15 346.97L656.55 334.76L668.51 336.14L669.77 325.18L680.98 326.47L679.98 313.22Z" />
		<path id="Path 38" class="shp20" d="M672.5 315.03C667.8 320.15 662.67 324.86 656.91 328.77C651.63 332.34 645.82 335.14 639.89 336.56L641.09 344.1L655.15 346.98L656.55 334.77L668.51 336.14L669.77 325.18L680.98 326.47L679.98 313.22L675.65 311.64C674.46 312.97 673.32 314.13 672.5 315.03Z" />
		<path id="Path 39" class="shp21" d="M656.91 304.76L633.46 296.26L637.2 319.73L637.45 319.69C646.06 318.36 653.4 312.73 656.91 304.76Z" />
		<path id="Path 40" class="shp12" d="M805.66 471.54L679.98 313.22L680.98 326.46L669.77 325.18L668.51 336.14L785.26 484.77L805.66 471.54Z" />
		<path id="Path 41" class="shp22" d="M637.15 311.18C636.63 310.86 636.14 310.5 635.67 310.12L637.2 319.73L637.45 319.69C645.14 318.51 651.81 313.88 655.65 307.23C650.12 311.19 643.39 315.03 637.15 311.18Z" />
		<path id="Path 42" class="shp16" d="M763.74 498.6L779.89 519.31C779.89 519.31 787.2 509.59 797.71 501.01C802.82 496.83 818.58 487.16 818.58 487.16L801.5 466.3C801.5 466.3 775.67 472.94 763.74 498.6Z" />
		<path id="Path 43" class="shp23" d="M797.71 501.01C798.69 500.2 800.07 499.19 801.66 498.09C803.2 490.93 806.94 484.2 810.88 477.76L807.47 473.6C803.84 479.4 800.67 485.47 798.21 491.9C796.7 495.83 795.53 499.88 794.32 503.91C795.4 502.94 796.53 501.97 797.71 501.01ZM789.45 508.54C789.47 508.49 789.48 508.43 789.5 508.38C790.86 503.2 792.46 497.94 794.25 492.9C797.02 485.11 800.81 477.79 805.24 470.86L801.5 466.3C801.5 466.3 797.87 467.26 792.7 469.78C789.54 475.21 786.83 480.9 784.72 486.87C782.02 494.55 780.38 502.54 779.87 510.67C779.73 512.95 779.17 515.84 779.12 518.39L779.89 519.32C779.89 519.32 783.73 514.31 789.45 508.54Z" />
		<path id="Path 44" class="shp9" d="M835.58 509.13C834.16 507.41 824.38 513.19 813.75 522.02C803.12 530.86 795.65 539.41 797.08 541.13C798.5 542.84 808.28 537.07 818.91 528.23C829.54 519.4 837.01 510.84 835.58 509.13ZM809.37 833.68C809.37 833.68 833.04 798.31 857.36 818.02C865.81 824.86 870.51 835.29 870.7 846.16C871.03 864.62 864.1 895.13 816.06 899.98C746.42 907 744.71 861.4 748.22 838.89C751.73 816.37 785.49 802.36 809.37 833.68Z" />
		<path id="Path 45" class="shp24" d="M796.07 821.17C774.55 807.55 751.11 820.33 748.22 838.88C747.21 845.38 746.63 853.78 747.99 862.3C770.39 861.44 791 842.72 796.07 821.17Z" />
		<path id="Path 46" class="shp7" d="M857.36 818.02C856.67 817.46 855.98 816.95 855.3 816.48C856.09 821 856.37 825.54 856.22 829.79C855.66 845.11 847.22 858.28 836.81 868.98C824.57 881.57 810.31 892.65 794 899.42C793.37 899.69 792.72 899.94 792.07 900.19C799 900.91 806.94 900.9 816.06 899.98C864.1 895.13 871.03 864.62 870.7 846.16C870.51 835.29 865.81 824.86 857.36 818.02Z" />
		<path id="Path 47" class="shp15" d="M809.37 833.68C809.37 833.68 793.73 791.73 837.6 777.67C837.6 777.67 862.83 817.52 809.37 833.68ZM823.36 808.57C819.33 812.27 813.02 817.17 806.7 818.95C807.04 827.43 809.37 833.68 809.37 833.68C852.02 820.79 844.58 792.81 839.84 782.02C837.2 792.18 830.68 801.82 823.36 808.57ZM809.37 833.68C809.37 833.68 819.96 785.87 787.37 768.44C787.37 768.44 809.86 784.48 809.37 833.68Z" />
		<path id="Path 48" class="shp25" d="M236.38 461.31L262.01 523.03C264.62 529.3 290 524.72 318.72 512.79C347.43 500.87 368.6 486.12 365.99 479.85L340.36 418.12L236.38 461.31Z" />
		<path id="Path 49" class="shp16" d="M270.04 395.6L175.68 486.52L306.69 483.84L401.06 392.91L270.04 395.6Z" />
		<path id="Path 50" class="shp11" d="M361 462.14L356.97 463.81L349.18 445.06C348.92 444.43 348.31 444 347.63 443.98L288.29 441.9L288.44 437.54L347.79 439.62C350.17 439.71 352.3 441.18 353.21 443.38L361 462.14Z" />
		<path id="Path 51" class="shp12" d="M361.43 463.77L359.63 464.52L357.82 465.27C356.8 466.86 356.63 468.86 357.35 470.61L361.44 480.45L365.54 478.75L369.64 477.05L365.55 467.2C364.82 465.45 363.28 464.17 361.43 463.77ZM357.82 465.27L361.43 463.77C362.7 463.24 363.3 461.79 362.77 460.52L361.4 457.22C360.88 455.96 359.42 455.36 358.16 455.88L354.55 457.38C353.28 457.91 352.68 459.36 353.21 460.63L354.58 463.93C355.1 465.19 356.56 465.79 357.82 465.27ZM283.46 435.72C277.53 439.64 279.4 444.14 286.36 442.71C288.29 442.31 290.26 441.49 291.9 440.4C297.83 436.48 295.96 431.99 289 433.42C287.08 433.81 285.1 434.64 283.46 435.72ZM284.19 435.87C279.37 438.69 280.41 441.21 285.81 439.78C287.31 439.38 288.88 438.73 290.21 437.95C295.04 435.13 293.99 432.62 288.59 434.04C287.1 434.44 285.52 435.09 284.19 435.87Z" />
		<path id="Path 52" class="shp26" d="M150 556.4C147.05 557.17 142.86 550.84 140.64 542.27C138.43 533.7 139.02 526.13 141.97 525.37L140.3 518.92L129.86 521.63L141.22 565.55L151.67 562.85L150 556.4ZM138.11 510.45L127.66 513.16L128.8 517.54L139.24 514.83L138.11 510.45ZM152.73 566.94L142.28 569.65L143.42 574.03L153.86 571.32L152.73 566.94Z" />
		<path id="Path 53" class="shp27" d="M134.98 498.39L126.16 500.67C125.27 500.9 124.73 501.82 124.96 502.71L127.66 513.16L138.11 510.45L134.98 498.39ZM143.41 574.03L144.72 579.07L158.12 596.4L160.21 595.86L153.86 571.32L143.41 574.03Z" />
		<path id="Path 54" class="shp28" d="M139.24 514.83L128.8 517.54L129.86 521.63L140.3 518.92L139.24 514.83ZM151.67 562.85L141.22 565.56L142.28 569.64L152.73 566.94L151.67 562.85Z" />
		<path id="Path 55" fill-rule="evenodd" class="shp29" d="M138.11 510.45L139.24 514.83L149.68 512.13L148.55 507.75L138.11 510.45ZM153.86 571.32L164.3 568.62L163.17 564.24L152.73 566.94L153.86 571.32ZM141.97 525.37C144.92 524.61 149.1 530.94 151.32 539.51C153.54 548.08 152.95 555.64 150 556.41L151.67 562.85L162.11 560.15L150.74 516.22L140.3 518.92L141.97 525.37Z" />
		<path id="Path 56" class="shp30" d="M148.55 507.75L145.85 497.31C145.62 496.41 144.7 495.87 143.8 496.1L134.98 498.39L138.11 510.45L148.55 507.75ZM165.61 573.66L164.3 568.62L153.86 571.32L160.21 595.86L162.3 595.32L165.61 573.66Z" />
		<path id="Path 57" class="shp28" d="M141.97 525.37C139.02 526.13 138.43 533.7 140.64 542.27C142.86 550.84 147.05 557.16 150 556.4C152.95 555.64 153.54 548.08 151.32 539.51C149.1 530.94 144.92 524.61 141.97 525.37ZM140.3 518.92L150.74 516.22L149.68 512.13L139.24 514.83L140.3 518.92ZM152.73 566.94L163.17 564.24L162.11 560.15L151.67 562.85L152.73 566.94Z" />
		<path id="Path 58" class="shp3" d="M308.24 277.72C308.24 277.72 260.56 270.68 236.1 318.25C236.1 318.25 268.37 293.98 297.19 302.61L308.24 277.72ZM339.7 314.55C339.7 314.55 339.19 362.75 288.37 379.46C288.37 379.46 317.4 351.39 313.39 321.57L339.7 314.55Z" />
		<path id="Path 59" class="shp15" d="M287.62 306.75C312.37 241.42 379.64 217.7 426.42 208.64C410.15 253.43 376.2 316.16 307.79 330.37L287.62 306.75Z" />
		<path id="Path 60" class="shp16" d="M426.42 208.64L297.71 318.56L307.79 330.37C376.19 316.16 410.15 253.43 426.42 208.64Z" />
		<path id="Path 61" class="shp3" d="M297.71 318.57L287.62 306.76L279.78 321.69L285.79 328.74L291.81 335.79L307.79 330.38L297.71 318.57Z" />
		<path id="Path 62" class="shp11" d="M385.74 263.96C379.17 269.57 369.29 268.8 363.68 262.23C358.07 255.66 358.85 245.78 365.42 240.17C371.99 234.56 381.86 235.34 387.47 241.91C393.08 248.48 392.31 258.35 385.74 263.96Z" />
		<path id="Path 63" class="shp12" d="M382.76 260.48C378.11 264.45 371.13 263.9 367.16 259.25C363.2 254.6 363.75 247.62 368.39 243.66C373.04 239.69 380.02 240.24 383.99 244.88C387.96 249.53 387.41 256.51 382.76 260.48Z" />
		<path id="Path 64" class="shp11" d="M382.47 256.36C380.81 257.78 378.31 257.58 376.9 255.92C375.48 254.26 375.68 251.76 377.34 250.35C379 248.93 381.49 249.12 382.91 250.79C384.33 252.44 384.13 254.94 382.47 256.36Z" />
		<path id="Path 65" class="shp31" d="M853.38 288.97L853.25 339.9L710.89 201.69L853.38 288.97Z" />
		<path id="Path 66" class="shp28" d="M842.57 298.79L797.34 339.9L710.89 201.69L842.57 298.79ZM853.38 288.97L710.89 201.69L894.31 251.78L853.38 288.97Z" />
		<path id="Path 67" class="shp32" d="M842.57 298.79L853.25 339.9L824.65 315.09L842.57 298.79Z" />
	</g>
</svg>